HIERARCHY
ROOT Hips
{
 OFFSET 0.000000 0.000000 0.000000
 CHANNELS 6 Xposition Yposition Zposition Yrotation Xrotation Zrotation
 JOINT Chest
 {
  OFFSET 0.000000 9.303000 0.001900
  CHANNELS 3 Yrotation Xrotation Zrotation
  JOINT Chest2
  {
   OFFSET 0.000000 9.301100 -0.003900
   CHANNELS 3 Yrotation Xrotation Zrotation
   JOINT Chest3
   {
    OFFSET 0.000000 9.262800 0.000000
    CHANNELS 3 Yrotation Xrotation Zrotation
    JOINT Chest4
    {
     OFFSET 0.000000 9.253300 0.000000
     CHANNELS 3 Yrotation Xrotation Zrotation
     JOINT Neck
     {
      OFFSET 0.000000 14.010300 0.000000
      CHANNELS 3 Yrotation Xrotation Zrotation
      JOINT Head
      {
       OFFSET 0.000000 8.657600 -0.008300
       CHANNELS 3 Yrotation Xrotation Zrotation
       End Site
       {
        OFFSET 0.000000 16.540200 -0.004400
       }
      }
     }
     JOINT RightCollar
     {
      OFFSET -2.834100 9.267700 0.000000
      CHANNELS 3 Yrotation Xrotation Zrotation
      JOINT RightShoulder
      {
       OFFSET -13.135200 0.000000 0.000000
       CHANNELS 3 Yrotation Xrotation Zrotation
       JOINT RightElbow
       {
        OFFSET 0.000000 -28.893500 0.000000
        CHANNELS 3 Yrotation Xrotation Zrotation
        JOINT RightWrist
        {
         OFFSET 0.000000 -23.344000 0.000000
         CHANNELS 3 Yrotation Xrotation Zrotation
         End Site
         {
          OFFSET 0.000000 -17.223000 0.000000
         }
        }
       }
      }
     }
     JOINT LeftCollar
     {
      OFFSET 2.834100 9.267700 0.000000
      CHANNELS 3 Yrotation Xrotation Zrotation
      JOINT LeftShoulder
      {
       OFFSET 13.135200 0.000000 0.000000
       CHANNELS 3 Yrotation Xrotation Zrotation
       JOINT LeftElbow
       {
        OFFSET 0.000000 -28.893500 0.000000
        CHANNELS 3 Yrotation Xrotation Zrotation
        JOINT LeftWrist
        {
         OFFSET 0.000000 -23.344000 0.000000
         CHANNELS 3 Yrotation Xrotation Zrotation
         End Site
         {
          OFFSET 0.000000 -17.223000 0.000000
         }
        }
       }
      }
     }
    }
   }
  }
 }
 JOINT RightHip
 {
  OFFSET -7.547200 -0.009500 -0.001000
  CHANNELS 3 Yrotation Xrotation Zrotation
  JOINT RightKnee
  {
   OFFSET 0.000000 -39.762800 0.000900
   CHANNELS 3 Yrotation Xrotation Zrotation
   JOINT RightAnkle
   {
    OFFSET 0.000000 -38.588200 0.001600
    CHANNELS 3 Yrotation Xrotation Zrotation
    JOINT RightToe
    {
     OFFSET 0.000000 -4.693300 10.419700
     CHANNELS 3 Yrotation Xrotation Zrotation
     End Site
     {
      OFFSET 0.000000 -1.379900 5.669300
     }
    }
   }
  }
 }
 JOINT LeftHip
 {
  OFFSET 7.547200 -0.009500 -0.001000
  CHANNELS 3 Yrotation Xrotation Zrotation
  JOINT LeftKnee
  {
   OFFSET 0.000000 -39.762800 0.000900
   CHANNELS 3 Yrotation Xrotation Zrotation
   JOINT LeftAnkle
   {
    OFFSET 0.000000 -38.588200 0.001600
    CHANNELS 3 Yrotation Xrotation Zrotation
    JOINT LeftToe
    {
     OFFSET 0.000000 -4.693300 10.419700
     CHANNELS 3 Yrotation Xrotation Zrotation
     End Site
     {
      OFFSET 0.000000 -1.379900 5.669300
     }
    }
   }
  }
 }
}
MOTION
Frames: 12
Frame Time: 0.008333
5.946596 44.866703 4.866903 167.032956 -15.122931 -0.740082 3.901066 9.651663 1.429951 0.260162 0.628104 0.046937 0.448531 1.082118 0.082565 3.834933 9.039546 0.961375 22.394646 27.128479 1.038086 26.777048 7.033803 -3.759933 1.767939 5.231335 -5.627513 4.282283 -1.931863 -3.582601 43.103688 -66.188447 -27.581808 -4.012716 -13.355619 -27.241548 -9.730702 2.595942 -4.033407 -0.326624 -4.926504 19.484739 -14.530950 -77.839838 -22.282453 -4.112384 5.126549 4.867879 -21.203924 -73.115738 12.732178 -114.409561 84.426693 -114.858626 -8.099448 -8.937330 -1.852793 -0.078352 0.283526 -0.037862 -14.943893 -68.814406 28.318941 149.442526 68.818316 149.192231 -8.196705 -23.068164 -1.056063 -0.112143 -0.499940 0.065156
5.926436 44.862533 4.842459 167.052668 -15.020067 -0.773734 3.945898 9.636411 1.391429 0.261694 0.626629 0.044590 0.451193 1.079615 0.078572 3.857609 9.025724 0.929156 22.671606 27.067453 1.018001 27.167386 7.025390 -3.841987 1.757451 5.133125 -5.593432 4.172548 -1.691418 -4.104492 43.921043 -66.145822 -28.068861 -3.941860 -13.338602 -27.266340 -9.609030 2.549284 -3.822849 -0.142540 -4.549510 19.931007 -15.318831 -77.944773 -21.477955 -4.223451 5.182815 4.804183 -21.282199 -73.184333 12.768853 -114.547831 84.454525 -114.950831 -8.110720 -8.996887 -1.855339 -0.045604 0.322171 -0.030366 -15.124079 -68.909625 28.496574 149.609964 68.779527 149.291516 -8.144622 -23.138556 -1.005281 -0.154852 -0.505215 0.016865
5.907912 44.859195 4.815673 167.100902 -14.926725 -0.834403 3.937628 9.585422 1.404436 0.262438 0.625855 0.043497 0.486699 1.121534 0.041547 3.879756 9.009611 0.901309 22.925678 27.005715 0.991494 27.529258 7.011535 -3.927113 1.713180 5.046974 -5.530138 4.040311 -1.442396 -4.725191 44.814119 -66.107958 -28.567664 -3.877219 -13.347512 -27.272260 -9.481101 2.504364 -3.599893 0.050050 -4.181639 20.356324 -16.213853 -78.054448 -20.568815 -4.318336 5.184450 4.785903 -21.518399 -73.242617 12.923779 -114.894522 84.460295 -115.261608 -8.078541 -9.042888 -1.863009 -0.014968 0.329009 -0.027531 -15.408272 -69.001132 28.758672 149.815287 68.733205 149.421922 -8.103999 -23.179148 -0.936049 -0.202261 -0.521404 -0.013636
5.890432 44.856613 4.787713 167.159961 -14.834828 -0.913970 3.976941 9.601387 1.398011 0.263999 0.623249 0.041198 0.473268 1.095064 0.055921 3.899929 8.990544 0.876842 23.158622 26.943562 0.959655 27.864483 6.992835 -4.014510 1.685872 4.953812 -5.558407 3.830345 -1.172224 -5.297743 45.802304 -66.068760 -29.097128 -3.819653 -13.384964 -27.260222 -9.340007 2.459574 -3.372969 0.245279 -3.820331 20.763938 -17.259278 -78.173039 -19.506388 -4.387950 5.125917 4.821178 -21.825136 -73.289705 13.131001 -115.214136 84.466375 -115.540190 -8.042115 -9.119298 -1.884206 0.008821 0.362531 -0.021910 -15.721631 -69.087390 29.042257 150.009709 68.683649 149.553762 -8.037568 -23.185460 -0.886577 -0.270601 -0.569366 -0.027390
5.863604 44.855192 4.754908 167.169236 -14.753259 -0.927689 4.063742 9.630050 1.345770 0.265165 0.620151 0.039073 0.457391 1.068636 0.069101 3.918023 8.969474 0.854559 23.369832 26.879307 0.923396 28.171564 6.966745 -4.103115 1.649618 4.849534 -5.599993 3.573900 -0.883691 -5.882884 46.889459 -66.011628 -29.673068 -3.767632 -13.451312 -27.227205 -9.193784 2.409824 -3.146880 0.441471 -3.464290 21.157582 -18.496773 -78.297500 -18.241374 -4.422493 5.003098 4.910124 -21.942943 -73.352596 13.207959 -115.441314 84.466052 -115.747831 -8.090934 -9.153652 -1.893782 0.061884 0.368767 -0.000679 -15.787260 -69.180351 29.129754 150.294067 68.629107 149.742434 -7.927336 -23.261967 -0.784944 -0.373838 -0.586362 -0.072692
5.836079 44.852739 4.729285 167.202235 -14.619153 -0.960695 4.118062 9.583344 1.318766 0.266125 0.617534 0.037653 0.458992 1.064223 0.066670 3.936729 8.947253 0.835357 23.557999 26.811699 0.884176 28.447828 6.930906 -4.190932 1.595400 4.733813 -5.619527 3.292914 -0.585667 -6.505597 48.054646 -65.924011 -30.289216 -3.721411 -13.540307 -27.175192 -9.054910 2.353473 -2.925292 0.643958 -3.115047 21.538590 -19.951370 -78.421986 -16.750964 -4.415805 4.813118 5.053132 -22.197795 -73.443214 13.366928 -115.690447 84.524598 -115.979591 -8.089562 -9.200912 -1.890244 0.020289 0.398376 -0.007344 -15.910305 -69.324746 29.251558 150.438542 68.589490 149.851466 -7.911988 -23.340301 -0.750189 -0.401246 -0.594234 -0.087101
5.812978 44.851512 4.703915 167.298476 -14.482630 -1.041752 4.123412 9.528969 1.326160 0.267150 0.614846 0.036485 0.460823 1.059666 0.064678 3.957374 8.923876 0.819958 23.723289 26.742216 0.842767 28.693051 6.887062 -4.277109 1.529575 4.610263 -5.644934 3.001771 -0.282632 -7.134825 49.256799 -65.808636 -30.917504 -3.678683 -13.640056 -27.115846 -8.920516 2.294088 -2.709608 0.851778 -2.773940 21.907095 -21.585644 -78.539883 -15.073605 -4.360355 4.554893 5.242002 -22.646204 -73.513961 13.645998 -115.992199 84.563983 -116.238480 -8.104556 -9.272017 -1.914201 0.058336 0.424458 -0.009465 -16.123428 -69.469450 29.404993 150.457184 68.573244 149.902289 -7.984587 -23.404442 -0.739793 -0.346633 -0.564826 -0.061653
5.793231 44.856121 4.659761 167.340080 -14.462563 -1.106876 4.191084 9.583612 1.342948 0.268182 0.611886 0.035497 0.412309 1.019966 0.090421 4.024888 8.935158 0.781067 23.866263 26.672260 0.799052 28.907907 6.837177 -4.361904 1.453299 4.489083 -5.677611 2.721453 0.024280 -7.770571 50.447130 -65.679854 -31.525478 -3.638728 -13.743981 -27.063634 -8.784479 2.237141 -2.494899 1.053538 -2.443299 22.258196 -23.347532 -78.643483 -13.254093 -4.253131 4.226940 5.456995 -22.894077 -73.480397 13.756275 -116.425714 84.560801 -116.608865 -8.056734 -9.388251 -1.966612 0.092238 0.466827 -0.002587 -16.019940 -69.528940 29.326153 150.666455 68.526530 150.119204 -7.856049 -23.462019 -0.629367 -0.468343 -0.599984 -0.106556
5.769060 44.859576 4.622192 167.404073 -14.389684 -1.160836 4.237479 9.582969 1.343146 0.269330 0.608626 0.034653 0.362180 0.982541 0.113502 4.096832 8.940730 0.747646 23.986073 26.602153 0.751340 29.091528 6.781670 -4.446990 1.369950 4.372995 -5.718527 2.463346 0.337975 -8.416921 51.557416 -65.555378 -32.062548 -3.598630 -13.854979 -27.025656 -8.645194 2.184898 -2.279037 1.237852 -2.125562 22.587933 -25.265654 -78.731980 -11.267827 -4.102654 3.834526 5.688673 -23.183207 -73.500550 13.891948 -116.821760 84.575322 -116.959434 -8.018193 -9.468637 -2.008346 0.111291 0.485167 0.004936 -15.990883 -69.630052 29.280500 150.798727 68.495299 150.265499 -7.818489 -23.548099 -0.548196 -0.512190 -0.597175 -0.135711
5.745810 44.862795 4.588513 167.468751 -14.289100 -1.224454 4.285216 9.552200 1.354945 0.270558 0.605049 0.034073 0.439475 1.026778 0.072460 4.053855 8.855884 0.779283 24.083325 26.533805 0.697767 29.245174 6.723413 -4.534645 1.286538 4.260834 -5.767830 2.226812 0.660617 -9.079138 52.533763 -65.446265 -32.484380 -3.554195 -13.972327 -26.995501 -8.502228 2.134982 -2.067123 1.402895 -1.821869 22.895754 -27.394173 -78.809697 -9.065453 -3.935962 3.395153 5.928185 -23.535786 -73.541629 14.090894 -117.219237 84.600677 -117.320265 -7.936817 -9.537444 -2.043635 0.096520 0.497343 0.001986 -16.054539 -69.746787 29.320033 150.905843 68.468633 150.384564 -7.801344 -23.628228 -0.485187 -0.533679 -0.610023 -0.175514
5.721939 44.864559 4.562558 167.536344 -14.135197 -1.291976 4.326476 9.466995 1.368616 0.271586 0.601008 0.033647 0.468627 1.036416 0.059746 4.053503 8.803021 0.786012 24.161397 26.469301 0.639080 29.373179 6.665902 -4.624659 1.212363 4.151938 -5.821295 2.005214 0.994697 -9.756287 53.394464 -65.354460 -32.804723 -3.507926 -14.085495 -26.972736 -8.354117 2.083800 -1.863683 1.555268 -1.528976 23.187283 -29.708947 -78.884190 -6.663114 -3.802050 2.930987 6.151303 -23.965884 -73.630420 14.374649 -117.570234 84.652690 -117.645956 -7.884897 -9.584449 -2.045762 0.157711 0.513089 -0.007728 -16.184219 -69.914072 29.420197 150.941129 68.452017 150.456576 -7.841945 -23.694165 -0.464976 -0.496698 -0.584538 -0.149520
5.697253 44.869833 4.522838 167.609411 -14.061221 -1.332311 4.358031 9.461521 1.361583 0.272358 0.596582 0.033309 0.469991 1.028861 0.059131 4.076786 8.764887 0.782823 24.221755 26.409161 0.576076 29.477346 6.610119 -4.716294 1.150757 4.043392 -5.876630 1.794099 1.343220 -10.439767 54.169933 -65.276166 -33.048567 -3.462165 -14.189880 -26.972438 -8.203437 2.029897 -1.672131 1.698558 -1.244583 23.465680 -32.163592 -78.960504 -4.100971 -3.744454 2.468790 6.342281 -24.185742 -73.654417 14.426277 -117.922717 84.656746 -117.930307 -7.892548 -9.682925 -2.080005 0.157469 0.546161 0.008427 -16.191845 -70.008425 29.395800 151.106884 68.418951 150.607629 -7.797667 -23.762336 -0.405807 -0.536798 -0.589115 -0.145322
